# xmcd
#
# Track frame offsets:
#	150
#	18210
#	35978
#	51779
#	68960
#	86114
#	102662
#	121226
#	138217
#	156023
#	174203
#	192792
#
# Disc length: 2741 seconds
#
# Revision: 1
# Processed by: cddbd v1.5.1PL2 Copyright (c) Steve Scherf et al.
# Submitted via: audiograbber 1.83.01
#
DISCID=9e0ab30c
DTITLE=ANDRIJANA - Na krilima andjela
DYEAR=2004
DGENRE=Pop
TTITLE0=U srcu osvete
TTITLE1=Za svaki dodir tvoj
TTITLE2=Kad nisi tu
TTITLE3=I ljubav ima kraj
TTITLE4=Moja zeljo najveca
TTITLE5=Krila andjela
TTITLE6=Moja ljubav je..
TTITLE7=Nisi kriv
TTITLE8=Hiljadu godina
TTITLE9=Pjesma ljubavna
TTITLE10=Samo da si tu
TTITLE11=Nijedna suza
EXTD=
EXTT0=
EXTT1=
EXTT2=
EXTT3=
EXTT4=
EXTT5=
EXTT6=
EXTT7=
EXTT8=
EXTT9=
EXTT10=
EXTT11=
PLAYORDER=
